<?xml version="1.0" encoding="utf-8"?>
<!-- Generator: Adobe Illustrator 24.3.0, SVG Export Plug-In . SVG Version: 6.00 Build 0)  -->
<svg version="1.1" id="Layer_1" xmlns="http://www.w3.org/2000/svg" xmlns:xlink="http://www.w3.org/1999/xlink" x="0px" y="0px"
	 viewBox="0 0 566.9 80.7" style="enable-background:new 0 0 566.9 80.7;" xml:space="preserve">
<style type="text/css">
	.st0{fill:#02F2BE;}
	.st1{fill:#07DCBF;}
	.st2{fill:#0CC6BF;}
	.st3{fill:#11B1C0;}
	.st4{fill:#169BC1;}
	.st5{fill:#1B85C2;}
	.st6{fill:#206FC2;}
	.st7{fill:#2559C3;}
	.st8{fill:#2A43C4;}
	.st9{fill:#2F2EC5;}
	.st10{fill:#3418C5;}
	.st11{fill:#3902C6;}
	.st12{fill:#FFFFFF;}
</style>
<g>
	<rect x="57.8" y="17.4" transform="matrix(0.7071 -0.7071 0.7071 0.7071 0.687 55.4492)" class="st0" width="19" height="19"/>
	<rect x="71.2" y="3.9" transform="matrix(0.7071 -0.7071 0.7071 0.7071 14.1183 60.9809)" class="st1" width="19" height="19"/>
	<rect x="84.7" y="17.4" transform="matrix(0.7071 -0.7071 0.7071 0.7071 8.5655 74.483)" class="st2" width="19" height="19"/>
	<rect x="71.2" y="30.9" transform="matrix(0.7071 -0.7071 0.7071 0.7071 -4.9348 68.9261)" class="st3" width="19" height="19"/>
	<rect x="57.8" y="44.3" transform="matrix(0.7071 -0.7071 0.7071 0.7071 -18.3368 63.3237)" class="st4" width="19" height="19"/>
	<rect x="44.3" y="57.8" transform="matrix(0.7071 -0.7071 0.7071 0.7071 -31.8348 57.7727)" class="st5" width="19" height="19"/>
	<rect x="30.9" y="44.3" transform="matrix(0.7071 -0.7071 0.7071 0.7071 -26.2114 44.2999)" class="st6" width="19" height="19"/>
	<rect x="44.3" y="30.9" transform="matrix(0.7071 -0.7071 0.7071 0.7071 -12.8051 49.8982)" class="st7" width="19" height="19"/>
	<rect x="30.9" y="17.4" transform="matrix(0.7071 -0.7071 0.7071 0.7071 -7.1876 36.4254)" class="st8" width="19" height="19"/>
	<rect x="17.4" y="30.8" transform="matrix(0.7071 -0.7071 0.7071 0.7071 -20.6504 30.8037)" class="st9" width="19" height="19"/>
	<rect x="3.9" y="17.4" transform="matrix(0.7071 -0.7071 0.7071 0.7071 -15.1286 17.3682)" class="st10" width="19" height="19"/>
	<rect x="17.4" y="3.9" transform="matrix(0.7071 -0.7071 0.7071 0.7071 -1.6266 22.9292)" class="st11" width="19" height="19"/>
	<path class="st12" d="M359.1,57.5c-3.4,3.4-8,5.3-12.8,5.2c-8.5,0-13.6-4.4-13.6-11.5c0-5.1,3.5-8.8,7.5-11.9
		c-3.6-3.7-5.4-6.5-5.4-10.6c0-6.3,5.1-10.8,12.7-10.8s12.6,4.3,12.6,10.7c0,4.7-3.9,8.1-8.1,11.1l6.8,6.6l6.2-8.7l6.1,4.2l-6.9,9.7
		L374.8,62h-11.1L359.1,57.5z M353.8,52.4l-8.3-8c-2.4,2-4.1,3.9-4.1,6.2c0,2.9,2.2,4.8,5.6,4.8C349.5,55.4,352,54.3,353.8,52.4z
		 M346.8,34.8c2.9-2.1,5.1-3.9,5.1-5.9c0-2.3-1.6-3.7-4.4-3.7s-4.4,1.4-4.4,4C343.1,30.8,343.9,31.9,346.8,34.8L346.8,34.8z"/>
	<path class="st12" d="M164.3,19.3H175v42.1h-10.8V44.2h-18.9v17.2h-10.8V19.3h10.8v15.5h18.9V19.3H164.3z"/>
	<path class="st12" d="M215.9,61.4l-3-8.7h-14.5l-3.2,8.7h-11.4l17.3-42.1h9.2L227,61.4H215.9z M201.9,43.5h7.8l-3.8-10.8
		L201.9,43.5z"/>
	<path class="st12" d="M273.4,54.9c-4.8,5.3-10.9,7.9-18.4,7.9c-6.8,0-12.4-2.1-16.8-6.4c-4.4-4.2-6.8-10-6.6-16
		c-0.2-6,2.2-11.8,6.6-16c4.4-4.3,10.4-6.6,16.6-6.4c7-0.2,13.6,3,17.9,8.5l-6.6,6.6c-2.7-3.3-6.8-5.3-11.1-5.2
		c-3.3-0.1-6.5,1.2-8.9,3.5c-2.3,2.4-3.6,5.7-3.5,9c-0.3,6.6,4.9,12.2,11.5,12.4c0.4,0,0.7,0,1.1,0c4.4,0.1,8.6-1.7,11.7-4.9
		L273.4,54.9z"/>
	<path class="st12" d="M307.8,39.8c4,1.5,7.4,4.3,9.5,7.9c2.4,4.2,3.5,8.9,3.4,13.7h-11c0-5.3-1.2-9.5-3.5-12.5
		c-2.4-3-6-4.6-9.8-4.5H292v16.9h-10.8v-42H292v15.8h3.9c4.2,0,7.4-1.4,9.8-4.2s3.5-6.6,3.5-11.6h10.9c0.1,4.5-1,9-3.2,13
		C314.9,35.8,311.6,38.4,307.8,39.8z"/>
	<path class="st12" d="M413.7,19.3h10.8v42.1h-10.8V44.1h-18.9v17.2H384v-42h10.8v15.5h18.9V19.3z"/>
	<path class="st12" d="M449.5,52.6h23.6v8.8h-34.4v-42h33.6v8.8h-22.8v7.2h21.3v8.7h-21.3L449.5,52.6L449.5,52.6z"/>
	<path class="st12" d="M512,61.4l-3-8.7h-14.5l-3.2,8.7h-11.4l17.4-42.1h9.2l16.6,42.1H512z M498,43.4h7.8L502,32.6L498,43.4z"/>
	<path class="st12" d="M543.3,51.9h23.6v9.5h-34.4V19.3h10.8L543.3,51.9L543.3,51.9z"/>
</g>
</svg>
